<svg width="26.916016" height="26.916626" viewBox="0 0 26.916 26.9166" fill="none" xmlns="http://www.w3.org/2000/svg" xmlns:xlink="http://www.w3.org/1999/xlink">
	<desc>
			Created with Pixso.
	</desc>
	<defs/>
	<circle id="Ellipse 5" cx="13.458984" cy="13.458374" r="13.458333" fill="#956D84" fill-opacity="1.000000"/>
	<path id="Vector" d="M13.64 5.69C10.65 5.69 7.8 5.43 6.72 8.16C6.27 9.29 6.33 10.75 6.33 12.85C6.33 14.69 6.27 16.42 6.72 17.54C7.8 20.28 10.66 20.01 13.64 20.01C16.5 20.01 19.46 20.31 20.56 17.54C21.01 16.4 20.94 14.96 20.94 12.85C20.94 10.05 21.1 8.25 19.72 6.89C18.32 5.52 16.42 5.69 13.64 5.69L13.64 5.69ZM13.45 6.85C19 6.85 20.18 6.46 19.79 15.77C19.39 18.87 16.78 19.04 13.64 19.04C8.13 19.04 7.36 18.49 7.24 12.85C7.1 6.46 9.1 6.85 13.45 6.85ZM17.54 8.17C17.06 8.17 16.66 8.55 16.66 9.03C16.66 9.5 17.06 9.89 17.54 9.89C18.02 9.89 18.42 9.5 18.42 9.03C18.42 8.55 18.02 8.17 17.54 8.17ZM13.64 9.17C11.57 9.17 9.89 10.82 9.89 12.85C9.89 14.88 11.57 16.53 13.64 16.53C15.71 16.53 17.39 14.88 17.39 12.85C17.39 10.82 15.71 9.17 13.64 9.17ZM13.64 10.47C16.86 10.47 16.86 15.24 13.64 15.24C10.42 15.24 10.41 10.47 13.64 10.47Z" fill="#FFFFFF" fill-opacity="1.000000" fill-rule="nonzero"/>
</svg>
