<svg width="33" height="24" viewBox="0 0 33 24" fill="none" xmlns="http://www.w3.org/2000/svg">
<path d="M10.6322 19.3342H10.6338C10.635 19.3342 10.6363 19.334 10.6375 19.334H28.166C28.5975 19.334 28.977 19.0477 29.0956 18.6328L32.9627 5.09765C33.0461 4.80585 32.9877 4.49214 32.8051 4.24994C32.6223 4.00774 32.3366 3.86523 32.0332 3.86523H8.40257L7.71146 0.755119C7.61302 0.312759 7.22076 -0.00195312 6.76758 -0.00195312H0.966797C0.432793 -0.00195312 0 0.43084 0 0.964844C0 1.49885 0.432793 1.93164 0.966797 1.93164H5.99213C6.11449 2.48277 9.29938 16.815 9.48267 17.6396C8.45519 18.0862 7.73438 19.1107 7.73438 20.3008C7.73438 21.9 9.03552 23.2012 10.6348 23.2012H28.166C28.7 23.2012 29.1328 22.7684 29.1328 22.2344C29.1328 21.7004 28.7 21.2676 28.166 21.2676H10.6348C10.1018 21.2676 9.66797 20.8338 9.66797 20.3008C9.66797 19.7685 10.1003 19.3355 10.6322 19.3342ZM30.7514 5.79883L27.4366 17.4004H11.4102L8.83209 5.79883H30.7514Z" fill="#956D84"/>
</svg>
