<!-- sakura-flower.svg -->
<svg xmlns="http://www.w3.org/2000/svg" viewBox="0 0 100 100">
  <!-- Центральная часть -->
  <circle cx="50" cy="50" r="12" fill="#FFD700" stroke="#FFA726" stroke-width="2"/>
  
  <!-- Лепестки -->
  <g transform="rotate(0 50 50)">
    <path d="M50 20 
             C60 18 65 25 62 35
             C58 42 50 45 50 45
             C50 45 42 42 38 35
             C35 25 40 18 50 20
             Z" 
          fill="#FFB3C6" 
          stroke="#FF80AB" 
          stroke-width="1.5"/>
  </g>
  
  <g transform="rotate(72 50 50)">
    <path d="M50 20 
             C60 18 65 25 62 35
             C58 42 50 45 50 45
             C50 45 42 42 38 35
             C35 25 40 18 50 20
             Z" 
          fill="#FFB3C6" 
          stroke="#FF80AB" 
          stroke-width="1.5"/>
  </g>

  <g transform="rotate(144 50 50)">
    <path d="M50 20 
             C60 18 65 25 62 35
             C58 42 50 45 50 45
             C50 45 42 42 38 35
             C35 25 40 18 50 20
             Z" 
          fill="#FFB3C6" 
          stroke="#FF80AB" 
          stroke-width="1.5"/>
  </g>

  <g transform="rotate(216 50 50)">
    <path d="M50 20 
             C60 18 65 25 62 35
             C58 42 50 45 50 45
             C50 45 42 42 38 35
             C35 25 40 18 50 20
             Z" 
          fill="#FFB3C6" 
          stroke="#FF80AB" 
          stroke-width="1.5"/>
  </g>

  <g transform="rotate(288 50 50)">
    <path d="M50 20 
             C60 18 65 25 62 35
             C58 42 50 45 50 45
             C50 45 42 42 38 35
             C35 25 40 18 50 20
             Z" 
          fill="#FFB3C6" 
          stroke="#FF80AB" 
          stroke-width="1.5"/>
  </g>
</svg>