<svg width="26.916016" height="26.916626" viewBox="0 0 26.916 26.9166" fill="none" xmlns="http://www.w3.org/2000/svg" xmlns:xlink="http://www.w3.org/1999/xlink">
	<desc>
			Created with Pixso.
	</desc>
	<defs>
		<clipPath id="clip147_2276">
			<rect id="viber (1) 1" rx="0.000000" width="14.000000" height="14.000000" transform="translate(6.500000 6.500000)" fill="white" fill-opacity="0"/>
		</clipPath>
	</defs>
	<circle id="Ellipse 5" cx="13.458984" cy="13.458374" r="13.458333" fill="#956D84" fill-opacity="1.000000"/>
	<rect id="viber (1) 1" rx="0.000000" width="14.000000" height="14.000000" transform="translate(6.500000 6.500000)" fill="#FFFFFF" fill-opacity="0"/>
	<g clip-path="url(#clip147_2276)">
		<path id="Vector" d="M14.92 6L12.07 6C9.08 6 6.64 8.43 6.64 11.42L6.64 13.99C6.64 16.22 8.01 18.23 10.07 19.04L10.07 20.71C10.07 20.82 10.13 20.92 10.24 20.97C10.27 20.99 10.31 21 10.35 21C10.42 21 10.49 20.97 10.54 20.92L12.2 19.42L14.92 19.42C17.92 19.42 20.35 16.99 20.35 13.99L20.35 11.42C20.35 8.43 17.92 6 14.92 6ZM19.78 13.99C19.78 16.67 17.6 18.85 14.92 18.85L12.09 18.85C12.02 18.85 11.95 18.88 11.9 18.92L10.64 20.07L10.64 18.84C10.64 18.72 10.56 18.61 10.45 18.57C8.51 17.89 7.21 16.05 7.21 13.99L7.21 11.42C7.21 8.74 9.39 6.57 12.07 6.57L14.92 6.57C17.6 6.57 19.78 8.74 19.78 11.42L19.78 13.99Z" fill="#FFFFFF" fill-opacity="1.000000" fill-rule="nonzero"/>
		<path id="Vector" d="M17.27 14.71L15.51 13.57C15.32 13.44 15.09 13.4 14.87 13.44C14.65 13.49 14.45 13.62 14.33 13.82L14.25 13.94C13.49 13.69 12.65 13.37 12.15 11.92L12.35 11.74C12.71 11.43 12.75 10.89 12.44 10.53L11.07 8.95C10.96 8.83 10.78 8.82 10.66 8.92L9.8 9.67C9.04 10.33 9.4 11.3 9.51 11.62C9.52 11.64 9.52 11.65 9.53 11.66C9.56 11.72 10.28 12.99 11.43 14.17C12.6 15.36 14.69 16.45 14.76 16.48C15 16.63 15.27 16.71 15.53 16.71C16 16.71 16.46 16.48 16.73 16.06L17.35 15.1C17.44 14.97 17.4 14.79 17.27 14.71ZM16.25 15.75C16 16.14 15.46 16.26 15.04 15.99C15.02 15.98 12.94 14.89 11.84 13.77C10.82 12.73 10.14 11.57 10.04 11.4C9.82 10.77 9.86 10.38 10.17 10.1L10.82 9.54L12.01 10.9C12.11 11.03 12.1 11.2 11.98 11.31L11.63 11.61C11.54 11.69 11.51 11.8 11.54 11.91C12.14 13.85 13.3 14.23 14.15 14.51L14.28 14.55C14.4 14.6 14.54 14.55 14.61 14.44L14.81 14.13C14.85 14.06 14.91 14.02 14.99 14C15.06 13.99 15.14 14 15.2 14.04L16.72 15.03L16.25 15.75Z" fill="#FFFFFF" fill-opacity="1.000000" fill-rule="nonzero"/>
		<path id="Vector" d="M14.15 10.64C14 10.59 13.84 10.68 13.79 10.83C13.75 10.98 13.84 11.14 13.99 11.19C14.41 11.31 14.75 11.65 14.87 12.07C14.91 12.2 15.02 12.28 15.15 12.28C15.17 12.28 15.2 12.28 15.23 12.27C15.38 12.23 15.47 12.07 15.42 11.92C15.25 11.3 14.76 10.81 14.15 10.64Z" fill="#FFFFFF" fill-opacity="1.000000" fill-rule="nonzero"/>
		<path id="Vector" d="M16.32 12.34C16.35 12.34 16.37 12.34 16.4 12.33C16.55 12.29 16.64 12.13 16.6 11.98C16.26 10.78 15.31 9.83 14.11 9.49C13.96 9.45 13.81 9.54 13.76 9.69C13.72 9.84 13.81 10 13.96 10.04C14.96 10.33 15.76 11.13 16.05 12.13C16.08 12.26 16.2 12.34 16.32 12.34Z" fill="#FFFFFF" fill-opacity="1.000000" fill-rule="nonzero"/>
		<path id="Vector" d="M13.99 8.16C13.84 8.12 13.68 8.21 13.64 8.36C13.59 8.51 13.68 8.67 13.83 8.71C15.54 9.19 16.89 10.55 17.37 12.26C17.41 12.38 17.52 12.47 17.65 12.47C17.67 12.47 17.7 12.46 17.73 12.45C17.88 12.41 17.97 12.25 17.92 12.1C17.39 10.21 15.88 8.7 13.99 8.16Z" fill="#FFFFFF" fill-opacity="1.000000" fill-rule="nonzero"/>
	</g>
</svg>
